<svg width="36" height="36" viewBox="0 0 36 36" fill="none" xmlns="http://www.w3.org/2000/svg">
<g clip-path="url(#clip0_757_63784)">
<mask id="mask0_757_63784" style="mask-type:luminance" maskUnits="userSpaceOnUse" x="2" y="2" width="32" height="32">
<path d="M34 18C34 9.16344 26.8366 2 18 2C9.16344 2 2 9.16344 2 18C2 26.8366 9.16344 34 18 34C26.8366 34 34 26.8366 34 18Z" fill="white"/>
</mask>
<g mask="url(#mask0_757_63784)">
<path d="M34 2H2V34H34V2Z" fill="#C7D7FE"/>
<path d="M17.8688 1.05671L2.78469 19.0332C0.702015 21.5153 1.02576 25.2157 3.5078 27.2984L21.4843 42.3824C23.9663 44.4651 27.6668 44.1414 29.7495 41.6593L44.8335 23.6828C46.9162 21.2008 46.5925 17.5004 44.1104 15.4177L26.1339 0.3336C23.6519 -1.74908 19.9515 -1.42533 17.8688 1.05671Z" fill="#43AED1"/>
<path d="M20.666 15.333C22.4438 16.2219 24.2216 16.2219 25.9993 15.333" stroke="white" stroke-width="2.22222" stroke-linecap="round"/>
<path d="M21.1107 10.8889C21.1107 10.398 20.8122 10 20.444 10C20.0758 10 19.7773 10.398 19.7773 10.8889C19.7773 11.3798 20.0758 11.7778 20.444 11.7778C20.8122 11.7778 21.1107 11.3798 21.1107 10.8889Z" fill="white"/>
<path d="M26.4447 10.8889C26.4447 10.398 26.1462 10 25.778 10C25.4098 10 25.1113 10.398 25.1113 10.8889C25.1113 11.3798 25.4098 11.7778 25.778 11.7778C26.1462 11.7778 26.4447 11.3798 26.4447 10.8889Z" fill="white"/>
</g>
</g>
<rect x="1.25" y="1.25" width="33.5" height="33.5" rx="16.75" stroke="white" stroke-width="1.5"/>
<defs>
<clipPath id="clip0_757_63784">
<rect x="2" y="2" width="32" height="32" rx="16" fill="white"/>
</clipPath>
</defs>
</svg>
