<svg width="36" height="36" viewBox="0 0 36 36" fill="none" xmlns="http://www.w3.org/2000/svg">
<g clip-path="url(#clip0_757_63778)">
<mask id="mask0_757_63778" style="mask-type:luminance" maskUnits="userSpaceOnUse" x="2" y="2" width="32" height="32">
<path d="M34 18C34 9.16344 26.8366 2 18 2C9.16344 2 2 9.16344 2 18C2 26.8366 9.16344 34 18 34C26.8366 34 34 26.8366 34 18Z" fill="white"/>
</mask>
<g mask="url(#mask0_757_63778)">
<path d="M34 2H2V34H34V2Z" fill="#FEDF89"/>
<path d="M-7.29362 8.15725C-8.7694 18.6579 -1.45327 28.3668 9.0474 29.8425C19.5481 31.3183 29.2569 24.0022 30.7327 13.5015C32.2084 3.00083 24.8923 -6.708 14.3916 -8.18377C3.89097 -9.65954 -5.81785 -2.34342 -7.29362 8.15725Z" fill="#C7D7FE"/>
<path d="M12.1738 19.2334C14.058 19.8662 15.8185 19.6188 17.4553 18.4911" stroke="black" stroke-width="2.22222" stroke-linecap="round"/>
<path d="M9.23118 14.2611C9.16285 13.7749 8.81189 13.4224 8.44729 13.4736C8.08268 13.5249 7.8425 13.9605 7.91082 14.4466C7.97914 14.9328 8.3301 15.2853 8.69471 15.2341C9.05931 15.1829 9.2995 14.7472 9.23118 14.2611Z" fill="black"/>
<path d="M19.7937 12.7767C19.7254 12.2906 19.3744 11.938 19.0098 11.9892C18.6452 12.0405 18.405 12.4761 18.4733 12.9623C18.5416 13.4484 18.8926 13.801 19.2572 13.7497C19.6218 13.6985 19.862 13.2628 19.7937 12.7767Z" fill="black"/>
</g>
</g>
<rect x="1.25" y="1.25" width="33.5" height="33.5" rx="16.75" stroke="white" stroke-width="1.5"/>
<defs>
<clipPath id="clip0_757_63778">
<rect x="2" y="2" width="32" height="32" rx="16" fill="white"/>
</clipPath>
</defs>
</svg>
