<svg width="36" height="36" viewBox="0 0 36 36" fill="none" xmlns="http://www.w3.org/2000/svg">
<g clip-path="url(#clip0_757_63777)">
<mask id="mask0_757_63777" style="mask-type:luminance" maskUnits="userSpaceOnUse" x="2" y="2" width="32" height="32">
<path d="M34 18C34 9.16344 26.8366 2 18 2C9.16344 2 2 9.16344 2 18C2 26.8366 9.16344 34 18 34C26.8366 34 34 26.8366 34 18Z" fill="white"/>
</mask>
<g mask="url(#mask0_757_63777)">
<path d="M34 2H2V34H34V2Z" fill="#FEDF89"/>
<path d="M7.64134 19.2767L24.2205 32.7022C26.5096 34.5559 29.8679 34.2029 31.7216 31.9138L45.1471 15.3347C47.0008 13.0456 46.6478 9.68722 44.3587 7.83355L27.7796 -5.59195C25.4905 -7.44563 22.1321 -7.09265 20.2784 -4.80355L6.85294 11.7756C4.99926 14.0647 5.35224 17.423 7.64134 19.2767Z" fill="#43AED1"/>
<path d="M19.2285 14.9053C20.8454 16.0613 22.6012 16.3394 24.4962 15.7396" stroke="white" stroke-width="2.22222" stroke-linecap="round"/>
<path d="M16.7111 10.9068C16.7879 10.422 16.5553 9.9822 16.1917 9.9246C15.828 9.867 15.4709 10.2134 15.3942 10.6983C15.3174 11.1831 15.5499 11.6229 15.9136 11.6805C16.2772 11.7381 16.6343 11.3917 16.7111 10.9068Z" fill="white"/>
<path d="M29.0021 12.8531C29.0789 12.3683 28.8463 11.9285 28.4827 11.8709C28.119 11.8133 27.762 12.1597 27.6852 12.6445C27.6084 13.1294 27.8409 13.5692 28.2046 13.6268C28.5682 13.6844 28.9253 13.338 29.0021 12.8531Z" fill="white"/>
</g>
</g>
<rect x="1.25" y="1.25" width="33.5" height="33.5" rx="16.75" stroke="white" stroke-width="1.5"/>
<defs>
<clipPath id="clip0_757_63777">
<rect x="2" y="2" width="32" height="32" rx="16" fill="white"/>
</clipPath>
</defs>
</svg>
