<svg width="36" height="36" viewBox="0 0 36 36" fill="none" xmlns="http://www.w3.org/2000/svg">
<g clip-path="url(#clip0_757_63782)">
<mask id="mask0_757_63782" style="mask-type:luminance" maskUnits="userSpaceOnUse" x="2" y="2" width="32" height="32">
<path d="M34 18C34 9.16344 26.8366 2 18 2C9.16344 2 2 9.16344 2 18C2 26.8366 9.16344 34 18 34C26.8366 34 34 26.8366 34 18Z" fill="white"/>
</mask>
<g mask="url(#mask0_757_63782)">
<path d="M34 2H2V34H34V2Z" fill="#C7D7FE"/>
<path d="M45.5465 27.6513L31.2312 6.42791C29.2546 3.49758 25.2768 2.72437 22.3465 4.70091L1.12314 19.0162C-1.8072 20.9928 -2.5804 24.9706 -0.603864 27.9009L13.7115 49.1243C15.688 52.0546 19.6658 52.8278 22.5962 50.8513L43.8195 36.5359C46.7498 34.5594 47.5231 30.5816 45.5465 27.6513Z" fill="#FEDF89"/>
<path d="M13.8594 26.8389C14.0131 27.6151 14.614 28.2901 15.53 28.7154C16.4459 29.1407 17.6019 29.2815 18.7435 29.1068C19.8851 28.9321 20.9189 28.4562 21.6175 27.7838C22.316 27.1114 22.6221 26.2976 22.4684 25.5214" fill="black"/>
<path d="M14.5756 20.9703C14.4953 20.5022 14.1569 20.1702 13.8196 20.2289C13.4824 20.2875 13.274 20.7144 13.3543 21.1826C13.4345 21.6507 13.7729 21.9826 14.1102 21.924C14.4474 21.8654 14.6558 21.4385 14.5756 20.9703Z" fill="black"/>
<path d="M21.6478 20.2272C21.5676 19.7591 21.2291 19.4271 20.8919 19.4857C20.5546 19.5443 20.3463 19.9713 20.4265 20.4394C20.5068 20.9075 20.8452 21.2395 21.1825 21.1809C21.5197 21.1223 21.7281 20.6953 21.6478 20.2272Z" fill="black"/>
</g>
</g>
<rect x="1.25" y="1.25" width="33.5" height="33.5" rx="16.75" stroke="white" stroke-width="1.5"/>
<defs>
<clipPath id="clip0_757_63782">
<rect x="2" y="2" width="32" height="32" rx="16" fill="white"/>
</clipPath>
</defs>
</svg>
