<svg width="36" height="36" viewBox="0 0 36 36" fill="none" xmlns="http://www.w3.org/2000/svg">
<g clip-path="url(#clip0_757_63775)">
<mask id="mask0_757_63775" style="mask-type:luminance" maskUnits="userSpaceOnUse" x="2" y="2" width="32" height="32">
<path d="M34 18C34 9.16344 26.8366 2 18 2C9.16344 2 2 9.16344 2 18C2 26.8366 9.16344 34 18 34C26.8366 34 34 26.8366 34 18Z" fill="white"/>
</mask>
<g mask="url(#mask0_757_63775)">
<path d="M34 2H2V34H34V2Z" fill="#FEDF89"/>
<path d="M-2.24761 23.4967C-3.62995 32.2245 2.32469 40.4204 11.0525 41.8027C19.7802 43.1851 27.9761 37.2304 29.3584 28.5027C30.7408 19.7749 24.7861 11.579 16.0584 10.1967C7.33059 8.81434 -0.865265 14.769 -2.24761 23.4967Z" fill="#43AED1"/>
<path d="M9.30469 23.5732C9.44298 24.4464 10.0381 25.2106 10.9591 25.6976C11.8802 26.1846 13.0516 26.3547 14.2159 26.1703C15.3801 25.9859 16.4417 25.4622 17.1671 24.7144C17.8926 23.9665 18.2224 23.0559 18.0841 22.1827" fill="white"/>
<path d="M7.43253 20.27C7.35574 19.7851 6.99868 19.4387 6.63502 19.4963C6.27136 19.5539 6.03882 19.9937 6.11562 20.4785C6.19241 20.9634 6.54947 21.3098 6.91313 21.2522C7.27678 21.1946 7.50933 20.7548 7.43253 20.27Z" fill="white"/>
<path d="M19.7235 18.3237C19.6468 17.8388 19.2897 17.4924 18.926 17.55C18.5624 17.6076 18.3298 18.0474 18.4066 18.5322C18.4834 19.0171 18.8405 19.3635 19.2041 19.3059C19.5678 19.2483 19.8003 18.8085 19.7235 18.3237Z" fill="white"/>
</g>
</g>
<rect x="1.25" y="1.25" width="33.5" height="33.5" rx="16.75" stroke="white" stroke-width="1.5"/>
<defs>
<clipPath id="clip0_757_63775">
<rect x="2" y="2" width="32" height="32" rx="16" fill="white"/>
</clipPath>
</defs>
</svg>
