<svg width="36" height="36" viewBox="0 0 36 36" fill="none" xmlns="http://www.w3.org/2000/svg">
<g clip-path="url(#clip0_757_63785)">
<mask id="mask0_757_63785" style="mask-type:luminance" maskUnits="userSpaceOnUse" x="2" y="2" width="32" height="32">
<path d="M34 18C34 9.16344 26.8366 2 18 2C9.16344 2 2 9.16344 2 18C2 26.8366 9.16344 34 18 34C26.8366 34 34 26.8366 34 18Z" fill="white"/>
</mask>
<g mask="url(#mask0_757_63785)">
<path d="M34 2H2V34H34V2Z" fill="#FEDF89"/>
<path d="M11.4946 7.03994L7.93172 32.3908C7.4398 35.891 9.87851 39.1273 13.3787 39.6192L38.7296 43.1821C42.2298 43.674 45.4661 41.2353 45.958 37.735L49.5208 12.3842C50.0128 8.88396 47.5741 5.64769 44.0738 5.15576L18.723 1.59293C15.2228 1.101 11.9865 3.53971 11.4946 7.03994Z" fill="#C7D7FE"/>
<path d="M17.5254 24.8145C17.6484 25.6899 18.2301 26.4643 19.1425 26.9674C20.0549 27.4704 21.2232 27.6608 22.3905 27.4968C23.5578 27.3328 24.6283 26.8277 25.3667 26.0926C26.1051 25.3576 26.4508 24.4528 26.3278 23.5774" fill="black"/>
<path d="M16.3425 19.5951C16.2742 19.1089 15.9232 18.7564 15.5586 18.8076C15.194 18.8589 14.9538 19.2945 15.0221 19.7806C15.0905 20.2668 15.4414 20.6193 15.806 20.5681C16.1706 20.5168 16.4108 20.0812 16.3425 19.5951Z" fill="black"/>
<path d="M26.905 18.1107C26.8367 17.6245 26.4857 17.272 26.1211 17.3232C25.7565 17.3745 25.5163 17.8101 25.5846 18.2963C25.653 18.7824 26.0039 19.135 26.3685 19.0837C26.7331 19.0325 26.9733 18.5968 26.905 18.1107Z" fill="black"/>
</g>
</g>
<rect x="1.25" y="1.25" width="33.5" height="33.5" rx="16.75" stroke="white" stroke-width="1.5"/>
<defs>
<clipPath id="clip0_757_63785">
<rect x="2" y="2" width="32" height="32" rx="16" fill="white"/>
</clipPath>
</defs>
</svg>
