<svg width="36" height="36" viewBox="0 0 36 36" fill="none" xmlns="http://www.w3.org/2000/svg">
<g clip-path="url(#clip0_757_63779)">
<mask id="mask0_757_63779" style="mask-type:luminance" maskUnits="userSpaceOnUse" x="2" y="2" width="32" height="32">
<path d="M34 18C34 9.16344 26.8366 2 18 2C9.16344 2 2 9.16344 2 18C2 26.8366 9.16344 34 18 34C26.8366 34 34 26.8366 34 18Z" fill="white"/>
</mask>
<g mask="url(#mask0_757_63779)">
<path d="M34 2H2V34H34V2Z" fill="#FEDF89"/>
<path d="M25.6265 10.3891C18.4775 5.19507 8.47161 6.77985 3.27761 13.9288C-1.91639 21.0777 -0.331605 31.0836 6.81732 36.2776C13.9662 41.4716 23.9722 39.8868 29.1662 32.7379C34.3602 25.589 32.7754 15.5831 25.6265 10.3891Z" fill="#43AED1"/>
<path d="M11.709 23.7529C11.6166 24.6321 11.9936 25.5243 12.7572 26.2331C13.5208 26.9419 14.6084 27.4094 15.7807 27.5326C16.9529 27.6558 18.1139 27.4247 19.0082 26.8901C19.9025 26.3555 20.4568 25.5613 20.5492 24.6821" fill="white"/>
<path d="M13.4069 20.3564C13.4583 19.8682 13.203 19.4412 12.8368 19.4027C12.4707 19.3642 12.1322 19.7288 12.0809 20.217C12.0296 20.7053 12.2848 21.1322 12.651 21.1707C13.0172 21.2092 13.3556 20.8446 13.4069 20.3564Z" fill="white"/>
<path d="M20.4792 21.0996C20.5305 20.6113 20.2753 20.1843 19.9091 20.1459C19.5429 20.1074 19.2045 20.472 19.1532 20.9602C19.1019 21.4484 19.3571 21.8754 19.7233 21.9139C20.0895 21.9524 20.4279 21.5878 20.4792 21.0996Z" fill="white"/>
</g>
</g>
<rect x="1.25" y="1.25" width="33.5" height="33.5" rx="16.75" stroke="white" stroke-width="1.5"/>
<defs>
<clipPath id="clip0_757_63779">
<rect x="2" y="2" width="32" height="32" rx="16" fill="white"/>
</clipPath>
</defs>
</svg>
