<svg width="36" height="36" viewBox="0 0 36 36" fill="none" xmlns="http://www.w3.org/2000/svg">
<g clip-path="url(#clip0_757_63780)">
<mask id="mask0_757_63780" style="mask-type:luminance" maskUnits="userSpaceOnUse" x="2" y="2" width="32" height="32">
<path d="M34 18C34 9.16344 26.8366 2 18 2C9.16344 2 2 9.16344 2 18C2 26.8366 9.16344 34 18 34C26.8366 34 34 26.8366 34 18Z" fill="white"/>
</mask>
<g mask="url(#mask0_757_63780)">
<path d="M34 2H2V34H34V2Z" fill="#43AED1"/>
<path d="M14.8095 7.45467L5.12441 26.4628C3.78717 29.0873 4.83068 32.2989 7.45516 33.6361L26.4633 43.3213C29.0878 44.6585 32.2994 43.615 33.6366 40.9905L43.3217 21.9824C44.659 19.3579 43.6155 16.1463 40.991 14.809L21.9829 5.12392C19.3584 3.78668 16.1468 4.83019 14.8095 7.45467Z" fill="#FEDF89"/>
<path d="M16.8418 21.4512C16.6672 22.2215 16.9512 23.0386 17.6313 23.7228C18.3115 24.4069 19.3321 24.9021 20.4686 25.0993C21.6051 25.2965 22.7645 25.1797 23.6916 24.7744C24.6187 24.3692 25.2376 23.7088 25.4123 22.9385" fill="black"/>
<path d="M17.4083 18.0153C17.499 17.5495 17.3015 17.1181 16.967 17.0517C16.6325 16.9854 16.2877 17.3092 16.197 17.775C16.1062 18.2408 16.3037 18.6722 16.6382 18.7386C16.9727 18.8049 17.3175 18.4811 17.4083 18.0153Z" fill="black"/>
<path d="M26.2325 19.0983C26.3233 18.6325 26.1257 18.2011 25.7912 18.1348C25.4567 18.0684 25.112 18.3923 25.0212 18.858C24.9304 19.3238 25.128 19.7552 25.4625 19.8216C25.797 19.8879 26.1417 19.5641 26.2325 19.0983Z" fill="black"/>
</g>
</g>
<rect x="1.25" y="1.25" width="33.5" height="33.5" rx="16.75" stroke="white" stroke-width="1.5"/>
<defs>
<clipPath id="clip0_757_63780">
<rect x="2" y="2" width="32" height="32" rx="16" fill="white"/>
</clipPath>
</defs>
</svg>
