<svg width="36" height="36" viewBox="0 0 36 36" fill="none" xmlns="http://www.w3.org/2000/svg">
<g clip-path="url(#clip0_757_63776)">
<mask id="mask0_757_63776" style="mask-type:luminance" maskUnits="userSpaceOnUse" x="2" y="2" width="32" height="32">
<path d="M34 18C34 9.16344 26.8366 2 18 2C9.16344 2 2 9.16344 2 18C2 26.8366 9.16344 34 18 34C26.8366 34 34 26.8366 34 18Z" fill="white"/>
</mask>
<g mask="url(#mask0_757_63776)">
<path d="M34 2H2V34H34V2Z" fill="#43AED1"/>
<path d="M16.1713 31.3111C24.9957 30.8486 31.7745 23.3201 31.312 14.4957C30.8495 5.6712 23.321 -1.10752 14.4965 -0.645047C5.67209 -0.182577 -1.10663 7.34595 -0.64416 16.1704C-0.18169 24.9948 7.34684 31.7736 16.1713 31.3111Z" fill="#C7D7FE"/>
<path d="M9.23828 18.3174C11.1111 18.983 12.8757 18.7663 14.5319 17.6674" stroke="black" stroke-width="2.22222" stroke-linecap="round"/>
<path d="M7.4825 14.9512C7.42268 14.464 7.07792 14.1053 6.71248 14.1502C6.34703 14.1951 6.09928 14.6264 6.15911 15.1137C6.21894 15.601 6.56369 15.9596 6.92914 15.9147C7.29458 15.8699 7.54233 15.4385 7.4825 14.9512Z" fill="black"/>
<path d="M16.3048 13.8682C16.2449 13.3809 15.9002 13.0223 15.5347 13.0672C15.1693 13.1121 14.9215 13.5434 14.9814 14.0307C15.0412 14.518 15.386 14.8766 15.7514 14.8317C16.1168 14.7868 16.3646 14.3555 16.3048 13.8682Z" fill="black"/>
</g>
</g>
<rect x="1.25" y="1.25" width="33.5" height="33.5" rx="16.75" stroke="white" stroke-width="1.5"/>
<defs>
<clipPath id="clip0_757_63776">
<rect x="2" y="2" width="32" height="32" rx="16" fill="white"/>
</clipPath>
</defs>
</svg>
