<svg width="36" height="36" viewBox="0 0 36 36" fill="none" xmlns="http://www.w3.org/2000/svg">
<g clip-path="url(#clip0_757_63781)">
<mask id="mask0_757_63781" style="mask-type:luminance" maskUnits="userSpaceOnUse" x="2" y="2" width="32" height="32">
<path d="M34 18C34 9.16344 26.8366 2 18 2C9.16344 2 2 9.16344 2 18C2 26.8366 9.16344 34 18 34C26.8366 34 34 26.8366 34 18Z" fill="white"/>
</mask>
<g mask="url(#mask0_757_63781)">
<path d="M34 2H2V34H34V2Z" fill="#FEDF89"/>
<path d="M8.80188 12.7332L7.68538 34.0373C7.53122 36.9787 9.79079 39.4882 12.7323 39.6424L34.0364 40.7589C36.9779 40.9131 39.4874 38.6535 39.6415 35.712L40.758 14.4079C40.9122 11.4664 38.6526 8.95692 35.7111 8.80276L14.407 7.68626C11.4655 7.53211 8.95603 9.79168 8.80188 12.7332Z" fill="#C7D7FE"/>
<path d="M16.7188 22.2314C16.765 23.1143 17.277 23.9365 18.1421 24.5171C19.0071 25.0978 20.1544 25.3893 21.3316 25.3276C22.5087 25.2659 23.6192 24.856 24.4189 24.1882C25.2185 23.5203 25.6417 22.6491 25.5955 21.7662" fill="black"/>
<path d="M16.089 18.7036C16.0633 18.2134 15.7444 17.8316 15.3767 17.8509C15.009 17.8701 14.7318 18.2832 14.7575 18.7734C14.7832 19.2637 15.102 19.6455 15.4697 19.6262C15.8374 19.6069 16.1147 19.1939 16.089 18.7036Z" fill="black"/>
<path d="M26.7413 18.145C26.7156 17.6548 26.3967 17.273 26.029 17.2923C25.6613 17.3115 25.3841 17.7246 25.4098 18.2148C25.4355 18.7051 25.7544 19.0869 26.1221 19.0676C26.4898 19.0483 26.767 18.6353 26.7413 18.145Z" fill="black"/>
</g>
</g>
<rect x="1.25" y="1.25" width="33.5" height="33.5" rx="16.75" stroke="white" stroke-width="1.5"/>
<defs>
<clipPath id="clip0_757_63781">
<rect x="2" y="2" width="32" height="32" rx="16" fill="white"/>
</clipPath>
</defs>
</svg>
