<svg width="36" height="36" viewBox="0 0 36 36" fill="none" xmlns="http://www.w3.org/2000/svg">
<g clip-path="url(#clip0_757_63786)">
<mask id="mask0_757_63786" style="mask-type:luminance" maskUnits="userSpaceOnUse" x="2" y="2" width="32" height="32">
<path d="M34 18C34 9.16344 26.8366 2 18 2C9.16344 2 2 9.16344 2 18C2 26.8366 9.16344 34 18 34C26.8366 34 34 26.8366 34 18Z" fill="white"/>
</mask>
<g mask="url(#mask0_757_63786)">
<path d="M34 2H2V34H34V2Z" fill="#C7D7FE"/>
<path d="M23.679 44.0981C33.2894 39.6167 37.4472 28.1931 32.9658 18.5828C28.4844 8.97238 17.0608 4.81452 7.45045 9.29591C-2.15992 13.7773 -6.31778 25.2009 -1.83639 34.8113C2.645 44.4217 14.0686 48.5795 23.679 44.0981Z" fill="#43AED1"/>
<path d="M12.4512 23.8242C12.3741 24.7049 12.7667 25.5903 13.5425 26.2857C14.3184 26.9811 15.4139 27.4295 16.5882 27.5322C17.7624 27.635 18.9192 27.3836 19.804 26.8335C20.6888 26.2834 21.2292 25.4796 21.3062 24.5989" fill="white"/>
<path d="M15.1297 18.7048C15.1725 18.2158 14.9098 17.7933 14.543 17.7612C14.1762 17.7291 13.8442 18.0996 13.8014 18.5886C13.7586 19.0777 14.0213 19.5002 14.3881 19.5322C14.7549 19.5643 15.0869 19.1939 15.1297 18.7048Z" fill="white"/>
<path d="M20.4441 19.1697C20.4869 18.6806 20.2243 18.2582 19.8575 18.2261C19.4907 18.194 19.1587 18.5644 19.1159 19.0535C19.0731 19.5425 19.3358 19.965 19.7025 19.9971C20.0693 20.0292 20.4014 19.6587 20.4441 19.1697Z" fill="white"/>
</g>
</g>
<rect x="1.25" y="1.25" width="33.5" height="33.5" rx="16.75" stroke="white" stroke-width="1.5"/>
<defs>
<clipPath id="clip0_757_63786">
<rect x="2" y="2" width="32" height="32" rx="16" fill="white"/>
</clipPath>
</defs>
</svg>
