<svg width="36" height="36" viewBox="0 0 36 36" fill="none" xmlns="http://www.w3.org/2000/svg">
<g clip-path="url(#clip0_757_63783)">
<mask id="mask0_757_63783" style="mask-type:luminance" maskUnits="userSpaceOnUse" x="2" y="2" width="32" height="32">
<path d="M34 18C34 9.16344 26.8366 2 18 2C9.16344 2 2 9.16344 2 18C2 26.8366 9.16344 34 18 34C26.8366 34 34 26.8366 34 18Z" fill="white"/>
</mask>
<g mask="url(#mask0_757_63783)">
<path d="M34 2H2V34H34V2Z" fill="#FEDF89"/>
<path d="M13.5142 44.3553C23.2285 44.0161 30.8285 35.8661 30.4892 26.1518C30.15 16.4375 22 8.8375 12.2857 9.17673C2.57143 9.51596 -5.02856 17.666 -4.68933 27.3802C-4.3501 37.0945 3.79989 44.6945 13.5142 44.3553Z" fill="#C7D7FE"/>
<path d="M13.3496 22.6982C13.2266 23.5737 13.5723 24.4785 14.3107 25.2135C15.049 25.9485 16.1196 26.4536 17.2869 26.6177C18.4542 26.7817 19.6225 26.5913 20.5349 26.0883C21.4473 25.5852 22.029 24.8108 22.152 23.9353" fill="black"/>
<path d="M13.5287 18.2347C13.597 17.7486 13.3568 17.313 12.9922 17.2617C12.6276 17.2105 12.2766 17.563 12.2083 18.0492C12.14 18.5353 12.3802 18.971 12.7448 19.0222C13.1094 19.0734 13.4604 18.7209 13.5287 18.2347Z" fill="black"/>
<path d="M24.0912 19.7191C24.1595 19.233 23.9193 18.7973 23.5547 18.7461C23.1901 18.6949 22.8391 19.0474 22.7708 19.5336C22.7025 20.0197 22.9427 20.4553 23.3073 20.5066C23.6719 20.5578 24.0229 20.2053 24.0912 19.7191Z" fill="black"/>
</g>
</g>
<rect x="1.25" y="1.25" width="33.5" height="33.5" rx="16.75" stroke="white" stroke-width="1.5"/>
<defs>
<clipPath id="clip0_757_63783">
<rect x="2" y="2" width="32" height="32" rx="16" fill="white"/>
</clipPath>
</defs>
</svg>
